<svg width="48" height="48" viewBox="0 0 48 48" fill="none" xmlns="http://www.w3.org/2000/svg">
<circle cx="24" cy="24" r="24" fill="#161E35"/>
<path d="M34.6249 18.0008L30.5942 22.0314L32.4794 23.9165L36.51 19.8859L34.6249 18.0008Z" fill="#5D97FF"/>
<path d="M32.4794 23.9163L30.5942 25.8015L34.6249 29.8321L36.51 27.9469L32.4794 23.9163Z" fill="#5D97FF"/>
<path d="M30.5941 22.0304L26.5625 18L24.6772 19.8853L28.7089 23.9157L24.6772 27.9473L26.5625 29.8325L30.5941 25.8009L32.4794 23.9157L30.5941 22.0304Z" fill="white"/>
<path d="M23.0665 18.2574H20.4067V23.9218C20.4067 23.9341 20.4067 23.9465 20.4067 23.9588C20.4067 24.8536 20.0512 25.7118 19.4184 26.3446C18.7857 26.9773 17.9275 27.3328 17.0326 27.3328C16.1378 27.3328 15.2796 26.9773 14.6468 26.3446C14.0141 25.7118 13.6586 24.8536 13.6586 23.9588C13.6586 23.9465 13.6586 23.9341 13.6586 23.9218V18.2574H11V23.9366V23.9662C11 25.5664 11.6357 27.1012 12.7673 28.2328C13.8988 29.3643 15.4336 30 17.0339 30C18.6341 30 20.1689 29.3643 21.3005 28.2328C22.432 27.1012 23.0677 25.5664 23.0677 23.9662C23.0677 23.9563 23.0677 23.9465 23.0677 23.9366L23.0665 18.2574Z" fill="white"/>
</svg>
