<svg width="142" height="24" fill="none" xmlns="http://www.w3.org/2000/svg"><g clip-path="url(#a)"><g clip-path="url(#b)"><path d="m46.512.363-7.936 7.94 3.712 3.714 7.935-7.94L46.512.363ZM42.288 12.017l-3.712 3.714 7.935 7.94 3.712-3.713-7.935-7.94Z" fill="#5D97FF"/><path fill-rule="evenodd" clip-rule="evenodd" d="M30.641.36 26.93 4.074l7.935 7.94-7.937 7.944 3.71 3.713 7.939-7.942 3.711-3.714L38.577 8.3 30.64.36Z" fill="#161E35"/><path d="M64.392 18.568a6.624 6.624 0 0 1-6.487-5.237 6.638 6.638 0 0 1 3.76-7.444 6.624 6.624 0 0 1 5.804.178l2.628-4.554A11.872 11.872 0 0 0 54.07 6.028a11.893 11.893 0 0 0 4.23 16.116 11.873 11.873 0 0 0 11.756.23l-2.628-4.555a6.586 6.586 0 0 1-3.035.75Z" fill="#161E35"/><path d="M94.992 11.936A11.893 11.893 0 0 0 87.66.953 11.872 11.872 0 0 0 74.713 3.53a11.89 11.89 0 0 0 8.4 20.293c.19 0 .376-.005.56-.015h.107c.162 0 .323-.012.485-.036h.077c.388-.039.771-.1 1.145-.175h.014a11.874 11.874 0 0 0 4.23-1.78v1.324h5.225V12.49c.03-.182.036-.366.036-.553Zm-18.492 0a6.628 6.628 0 0 1 4.092-6.116 6.617 6.617 0 0 1 7.213 1.44 6.627 6.627 0 0 1-4.685 11.308A6.62 6.62 0 0 1 77 14.473a6.632 6.632 0 0 1-.503-2.537h.003ZM141.331 11.887a11.892 11.892 0 0 0-7.921-11.2 11.872 11.872 0 0 0-13.195 3.733A11.88 11.88 0 0 0 107.018.684a11.89 11.89 0 0 0-7.921 11.203v11.247h5.236V11.812a6.661 6.661 0 0 1 1.901-4.785 6.657 6.657 0 0 1 4.746-1.994 6.646 6.646 0 0 1 6.646 6.78v11.331h5.176V11.812a6.652 6.652 0 1 1 13.304 0V23.144h5.237v-11.2l-.012-.057ZM23.756.869h-5.237V12.1a6.649 6.649 0 0 1-6.642 6.647A6.64 6.64 0 0 1 7.18 16.8a6.65 6.65 0 0 1-1.946-4.7V.868H0v11.247c0 3.153 1.252 6.176 3.48 8.406a11.875 11.875 0 0 0 16.8 0 11.892 11.892 0 0 0 3.478-8.406v-.058L23.756.869Z" fill="#161E35"/></g></g><defs><clipPath id="a"><path fill="#fff" d="M0 0h142v24H0z"/></clipPath><clipPath id="b"><path fill="#fff" d="M0 0h141.333v24H0z"/></clipPath></defs></svg>